<svg xmlns="http://www.w3.org/2000/svg" xmlns:xlink="http://www.w3.org/1999/xlink" width="500" zoomAndPan="magnify" viewBox="0 0 375 374.999991" height="500" preserveAspectRatio="xMidYMid meet" version="1.0"><defs><g/><clipPath id="db5025e693"><path d="M 79 105 L 223 105 L 223 153 L 79 153 Z M 79 105 " clip-rule="nonzero"/></clipPath><clipPath id="af8693e772"><path d="M 193.105469 67.078125 L 222.191406 152.015625 L 108.386719 190.988281 L 79.296875 106.050781 Z M 193.105469 67.078125 " clip-rule="nonzero"/></clipPath><clipPath id="51682b1919"><path d="M 206.296875 105.59375 L 222.191406 152.015625 L 95.371094 152.414062 L 79.472656 105.988281 Z M 206.296875 105.59375 " clip-rule="nonzero"/></clipPath><clipPath id="6fd32d1025"><path d="M 154 142 L 292 142 L 292 199 L 154 199 Z M 154 142 " clip-rule="nonzero"/></clipPath><clipPath id="95190a5fcd"><path d="M 256.558594 104.488281 L 291.832031 198.039062 L 189.148438 236.753906 L 153.875 143.203125 Z M 256.558594 104.488281 " clip-rule="nonzero"/></clipPath><clipPath id="6e8a578ec7"><path d="M 270.921875 142.582031 L 291.832031 198.039062 L 174.929688 198.605469 L 154.019531 143.148438 Z M 270.921875 142.582031 " clip-rule="nonzero"/></clipPath><clipPath id="9f36114dc6"><path d="M 164.503906 154.089844 L 261.828125 154.089844 L 261.828125 226.9375 L 164.503906 226.9375 Z M 164.503906 154.089844 " clip-rule="nonzero"/></clipPath><clipPath id="d75d9dab77"><path d="M 237.355469 154.089844 L 164.503906 154.089844 L 188.789062 226.9375 L 261.636719 226.9375 Z M 237.355469 154.089844 " clip-rule="nonzero"/></clipPath><clipPath id="3bb8902bae"><path d="M 124.535156 151.546875 L 213.996094 151.546875 L 213.996094 218.511719 L 124.535156 218.511719 Z M 124.535156 151.546875 " clip-rule="nonzero"/></clipPath><clipPath id="aad815c59f"><path d="M 191.5 151.546875 L 124.535156 151.546875 L 146.855469 218.511719 L 213.820312 218.511719 Z M 191.5 151.546875 " clip-rule="nonzero"/></clipPath><clipPath id="596c79a200"><path d="M 260.886719 203.769531 L 287.375 203.769531 L 287.375 230.253906 L 260.886719 230.253906 Z M 260.886719 203.769531 " clip-rule="nonzero"/></clipPath><clipPath id="43aa6b1827"><path d="M 274.132812 203.769531 C 266.816406 203.769531 260.886719 209.699219 260.886719 217.011719 C 260.886719 224.324219 266.816406 230.253906 274.132812 230.253906 C 281.445312 230.253906 287.375 224.324219 287.375 217.011719 C 287.375 209.699219 281.445312 203.769531 274.132812 203.769531 Z M 274.132812 203.769531 " clip-rule="nonzero"/></clipPath></defs><rect x="-37.5" width="450" fill="#ffffff" y="-37.499999" height="449.999989" fill-opacity="1"/><rect x="-37.5" width="450" fill="#0083ff" y="-37.499999" height="449.999989" fill-opacity="1"/><g clip-path="url(#db5025e693)"><g clip-path="url(#af8693e772)"><g clip-path="url(#51682b1919)"><path fill="#ffffff" d="M 193.105469 67.078125 L 222.191406 152.015625 L 108.71875 190.875 L 79.628906 105.9375 Z M 193.105469 67.078125 " fill-opacity="1" fill-rule="nonzero"/></g></g></g><g clip-path="url(#6fd32d1025)"><g clip-path="url(#95190a5fcd)"><g clip-path="url(#6e8a578ec7)"><path fill="#ffffff" d="M 256.558594 104.488281 L 291.832031 198.039062 L 189.148438 236.753906 L 153.875 143.203125 Z M 256.558594 104.488281 " fill-opacity="1" fill-rule="nonzero"/></g></g></g><g clip-path="url(#9f36114dc6)"><g clip-path="url(#d75d9dab77)"><path fill="#0083ff" d="M 164.503906 154.089844 L 261.542969 154.089844 L 261.542969 226.9375 L 164.503906 226.9375 Z M 164.503906 154.089844 " fill-opacity="1" fill-rule="nonzero"/></g></g><g clip-path="url(#3bb8902bae)"><g clip-path="url(#aad815c59f)"><path fill="#ffffff" d="M 124.535156 151.546875 L 213.734375 151.546875 L 213.734375 218.511719 L 124.535156 218.511719 Z M 124.535156 151.546875 " fill-opacity="1" fill-rule="nonzero"/></g></g><g clip-path="url(#596c79a200)"><g clip-path="url(#43aa6b1827)"><path fill="#ffffff" d="M 260.886719 203.769531 L 287.375 203.769531 L 287.375 230.253906 L 260.886719 230.253906 Z M 260.886719 203.769531 " fill-opacity="1" fill-rule="nonzero"/></g></g><g fill="#ffffff" fill-opacity="1"><g transform="translate(109.574037, 266.468542)"><g><path d="M -0.25 -30.953125 L 28.734375 -30.953125 L 28.734375 -24.609375 L 18.125 -24.609375 L 18.125 0 L 10.359375 0 L 10.359375 -24.609375 L -0.25 -24.609375 Z M -0.25 -30.953125 "/></g></g></g><g fill="#ffffff" fill-opacity="1"><g transform="translate(138.058129, 266.468542)"><g><path d="M 10.0625 -23.0625 L 10.0625 -20.046875 C 12.195312 -22.597656 14.53125 -23.875 17.0625 -23.875 C 17.3125 -23.875 17.632812 -23.859375 18.03125 -23.828125 C 18.4375 -23.804688 18.78125 -23.765625 19.0625 -23.703125 L 19.0625 -17.65625 C 18.863281 -17.6875 18.535156 -17.707031 18.078125 -17.71875 C 17.617188 -17.726562 17.191406 -17.734375 16.796875 -17.734375 C 14.722656 -17.734375 13.082031 -17.078125 11.875 -15.765625 C 10.664062 -14.460938 10.0625 -12.644531 10.0625 -10.3125 L 10.0625 0 L 2.90625 0 L 2.90625 -23.0625 Z M 10.0625 -23.0625 "/></g></g></g><g fill="#ffffff" fill-opacity="1"><g transform="translate(157.545014, 266.468542)"><g><path d="M 11.421875 -15.4375 L 4.015625 -15.4375 C 4.015625 -18.164062 5.117188 -20.253906 7.328125 -21.703125 C 9.546875 -23.148438 12.800781 -23.875 17.09375 -23.875 C 18.65625 -23.875 20.144531 -23.757812 21.5625 -23.53125 C 22.988281 -23.3125 24.265625 -22.890625 25.390625 -22.265625 C 26.515625 -21.640625 27.394531 -20.753906 28.03125 -19.609375 C 28.675781 -18.472656 29 -17 29 -15.1875 L 29 -3.703125 C 29 -2.910156 29.066406 -2.257812 29.203125 -1.75 C 29.347656 -1.238281 29.632812 -0.828125 30.0625 -0.515625 L 30.0625 0 L 22.171875 0 L 21.828125 -2.515625 C 20.523438 -1.347656 19.09375 -0.503906 17.53125 0.015625 C 15.96875 0.546875 14.1875 0.8125 12.1875 0.8125 C 8.925781 0.8125 6.398438 0.109375 4.609375 -1.296875 C 2.816406 -2.703125 1.921875 -4.546875 1.921875 -6.828125 C 1.921875 -9.210938 2.828125 -10.910156 4.640625 -11.921875 C 6.460938 -12.929688 9.207031 -13.578125 12.875 -13.859375 C 14.863281 -14.023438 16.53125 -14.15625 17.875 -14.25 C 19.226562 -14.351562 20.253906 -14.578125 20.953125 -14.921875 C 21.648438 -15.265625 22 -15.863281 22 -16.71875 C 22 -18.445312 20.222656 -19.3125 16.671875 -19.3125 C 14.941406 -19.3125 13.632812 -19.003906 12.75 -18.390625 C 11.863281 -17.785156 11.421875 -16.800781 11.421875 -15.4375 Z M 22 -11.125 C 21.257812 -10.726562 20.398438 -10.46875 19.421875 -10.34375 C 18.441406 -10.21875 17.351562 -10.082031 16.15625 -9.9375 C 14.144531 -9.738281 12.613281 -9.472656 11.5625 -9.140625 C 10.507812 -8.816406 9.984375 -8.101562 9.984375 -7 C 9.984375 -6.113281 10.328125 -5.398438 11.015625 -4.859375 C 11.710938 -4.316406 12.660156 -4.046875 13.859375 -4.046875 C 16.304688 -4.046875 18.273438 -4.632812 19.765625 -5.8125 C 21.253906 -7 22 -8.5 22 -10.3125 Z M 22 -11.125 "/></g></g></g><g fill="#ffffff" fill-opacity="1"><g transform="translate(189.525664, 266.468542)"><g><path d="M -0.421875 -23.0625 L 7.421875 -23.0625 L 13.734375 -8.015625 L 20.640625 -23.0625 L 28.40625 -23.0625 L 17.09375 0 L 10.40625 0 Z M -0.421875 -23.0625 "/></g></g></g><g fill="#ffffff" fill-opacity="1"><g transform="translate(214.571328, 266.468542)"><g><path d="M -0.859375 0 L 13.8125 -30.953125 L 21.234375 -30.953125 L 35.34375 0 L 26.734375 0 L 23.921875 -6.5625 L 10.28125 -6.5625 L 7.5 0 Z M 12.921875 -12.828125 L 21.109375 -12.828125 L 16.96875 -22.390625 Z M 12.921875 -12.828125 "/></g></g></g><g fill="#ffffff" fill-opacity="1"><g transform="translate(249.067801, 266.468542)"><g><path d="M 11.34375 -30.953125 L 11.34375 0 L 3.578125 0 L 3.578125 -30.953125 Z M 11.34375 -30.953125 "/></g></g></g></svg>